<svg width="117" height="24" viewBox="0 0 117 24" fill="none" xmlns="http://www.w3.org/2000/svg">
<path d="M11.109 4.41674C11.3897 3.55277 12.612 3.55278 12.8927 4.41674L14.2716 8.6604C14.3971 9.04677 14.7572 9.30837 15.1634 9.30837H19.6255C20.5339 9.30837 20.9116 10.4708 20.1767 11.0048L16.5668 13.6275C16.2381 13.8663 16.1006 14.2896 16.2261 14.676L17.605 18.9196C17.8857 19.7836 16.8969 20.502 16.1619 19.9681L12.5521 17.3453C12.2234 17.1065 11.7783 17.1065 11.4497 17.3453L7.83979 19.9681C7.10486 20.502 6.11601 19.7836 6.39673 18.9196L7.77558 14.676C7.90112 14.2896 7.76359 13.8663 7.43492 13.6275L3.82505 11.0048C3.09011 10.4708 3.46782 9.30837 4.37625 9.30837H8.83829C9.24455 9.30837 9.60461 9.04677 9.73015 8.6604L11.109 4.41674Z" fill="#FCBB4D"/>
<path d="M34.5113 4.41674C34.7921 3.55277 36.0143 3.55278 36.2951 4.41674L37.6739 8.6604C37.7995 9.04677 38.1595 9.30837 38.5658 9.30837H43.0278C43.9362 9.30837 44.314 10.4708 43.579 11.0048L39.9692 13.6275C39.6405 13.8663 39.5029 14.2896 39.6285 14.676L41.0073 18.9196C41.2881 19.7836 40.2992 20.502 39.5643 19.9681L35.9544 17.3453C35.6257 17.1065 35.1807 17.1065 34.852 17.3453L31.2421 19.9681C30.5072 20.502 29.5184 19.7836 29.7991 18.9196L31.1779 14.676C31.3035 14.2896 31.1659 13.8663 30.8373 13.6275L27.2274 11.0048C26.4925 10.4708 26.8702 9.30837 27.7786 9.30837H32.2406C32.6469 9.30837 33.007 9.04677 33.1325 8.6604L34.5113 4.41674Z" fill="#FCBB4D"/>
<path d="M57.9176 4.41674C58.1983 3.55277 59.4206 3.55278 59.7013 4.41674L61.0802 8.6604C61.2057 9.04677 61.5658 9.30837 61.972 9.30837H66.4341C67.3425 9.30837 67.7202 10.4708 66.9853 11.0048L63.3754 13.6275C63.0467 13.8663 62.9092 14.2896 63.0347 14.676L64.4136 18.9196C64.6943 19.7836 63.7055 20.502 62.9705 19.9681L59.3607 17.3453C59.032 17.1065 58.5869 17.1065 58.2583 17.3453L54.6484 19.9681C53.9135 20.502 52.9246 19.7836 53.2053 18.9196L54.5842 14.676C54.7097 14.2896 54.5722 13.8663 54.2435 13.6275L50.6336 11.0048C49.8987 10.4708 50.2764 9.30837 51.1848 9.30837H55.6469C56.0531 9.30837 56.4132 9.04677 56.5387 8.6604L57.9176 4.41674Z" fill="#FCBB4D"/>
<path d="M81.3199 4.41674C81.6007 3.55277 82.8229 3.55278 83.1037 4.41674L84.4825 8.6604C84.608 9.04677 84.9681 9.30837 85.3744 9.30837H89.8364C90.7448 9.30837 91.1225 10.4708 90.3876 11.0048L86.7777 13.6275C86.4491 13.8663 86.3115 14.2896 86.4371 14.676L87.8159 18.9196C88.0966 19.7836 87.1078 20.502 86.3729 19.9681L82.763 17.3453C82.4343 17.1065 81.9893 17.1065 81.6606 17.3453L78.0507 19.9681C77.3158 20.502 76.3269 19.7836 76.6077 18.9196L77.9865 14.676C78.1121 14.2896 77.9745 13.8663 77.6459 13.6275L74.036 11.0048C73.301 10.4708 73.6788 9.30837 74.5872 9.30837H79.0492C79.4555 9.30837 79.8155 9.04677 79.9411 8.6604L81.3199 4.41674Z" fill="#FCBB4D"/>
<path d="M104.722 4.32299C105.003 3.45902 106.225 3.45903 106.506 4.32299L107.885 8.56665C108.01 8.95302 108.37 9.21462 108.777 9.21462H113.239C114.147 9.21462 114.525 10.3771 113.79 10.911L110.18 13.5338C109.851 13.7726 109.714 14.1958 109.839 14.5822L111.218 18.8259C111.499 19.6898 110.51 20.4083 109.775 19.8743L106.165 17.2516C105.837 17.0128 105.392 17.0128 105.063 17.2516L101.453 19.8743C100.718 20.4083 99.7293 19.6898 100.01 18.8259L101.389 14.5822C101.514 14.1958 101.377 13.7726 101.048 13.5338L97.4383 10.911C96.7034 10.3771 97.0811 9.21462 97.9895 9.21462H102.452C102.858 9.21462 103.218 8.95302 103.343 8.56665L104.722 4.32299Z" fill="#F1F5F9"/>
<mask id="mask0_4691_14818" style="mask-type:alpha" maskUnits="userSpaceOnUse" x="94" y="0" width="21" height="24">
<rect x="94.832" y="4.22656" width="14.8383" height="19.9195" transform="rotate(-15.6476 94.832 4.22656)" fill="#D9D9D9"/>
</mask>
<g mask="url(#mask0_4691_14818)">
<path d="M104.722 4.32299C105.003 3.45902 106.225 3.45903 106.506 4.32299L107.885 8.56665C108.01 8.95302 108.37 9.21462 108.777 9.21462H113.239C114.147 9.21462 114.525 10.3771 113.79 10.911L110.18 13.5338C109.851 13.7726 109.714 14.1958 109.839 14.5822L111.218 18.8259C111.499 19.6898 110.51 20.4083 109.775 19.8743L106.165 17.2516C105.837 17.0128 105.392 17.0128 105.063 17.2516L101.453 19.8743C100.718 20.4083 99.7293 19.6898 100.01 18.8259L101.389 14.5822C101.514 14.1958 101.377 13.7726 101.048 13.5338L97.4383 10.911C96.7034 10.3771 97.0811 9.21462 97.9895 9.21462H102.452C102.858 9.21462 103.218 8.95302 103.343 8.56665L104.722 4.32299Z" fill="#FCBB4D"/>
</g>
</svg>
