<svg width="248" height="46" viewBox="0 0 248 46" fill="none" xmlns="http://www.w3.org/2000/svg">
<path d="M19.201 19.2012L28.8016 28.8015L38.4021 19.2012L19.201 0L0 19.2012L9.60052 28.8015L19.201 19.2012Z" fill="#3C5458"/>
<path d="M23.4654 36.8521C23.4654 41.5619 19.2014 45.3799 19.2014 45.3799C19.2014 45.3799 14.9375 41.5619 14.9375 36.8521C14.9375 32.1423 19.2014 28.3242 19.2014 28.3242C19.2014 28.3242 23.4654 32.1423 23.4654 36.8521Z" fill="#F14F24"/>
<path d="M61.8359 17.9295H61.9289C62.9841 15.6342 64.4737 14.7031 66.5206 14.7031C66.9861 14.7031 67.3275 14.7344 67.5436 14.8274V19.0778H67.4204C67.079 19.0151 66.7377 18.9839 66.3964 18.9839C63.7597 18.9536 62.0218 20.5976 62.0218 23.823V31.4857H57.1523V14.9828H61.836L61.8359 17.9295Z" fill="#0F1516"/>
<path d="M68.1641 23.2639C68.1641 18.3005 71.6379 14.5156 76.9113 14.5156C82.1544 14.5156 85.5979 18.3005 85.5979 23.2639C85.5979 28.196 82.1544 32.0112 76.9113 32.0112C71.6379 32.0112 68.1641 28.196 68.1641 23.2639ZM80.6649 23.2639C80.6649 20.1304 79.3006 17.9895 76.881 17.9895C74.3988 17.9895 73.0961 20.1303 73.0961 23.2639C73.0961 26.3651 74.3988 28.4747 76.881 28.4747C79.3006 28.4747 80.6649 26.3651 80.6649 23.2639Z" fill="#0F1516"/>
<path d="M86.6523 23.2639C86.6523 18.3005 90.0333 14.5156 95.2148 14.5156C99.6197 14.5156 102.349 17.0281 102.939 20.6262H98.2231C97.8818 19.1064 96.8901 18.145 95.2764 18.145C92.8265 18.145 91.5844 20.1616 91.5844 23.2638C91.5844 26.2721 92.8265 28.3201 95.2764 28.3201C97.0759 28.3201 98.1615 27.2346 98.3786 25.3421H103.062C102.908 29.0957 99.9298 32.0111 95.339 32.0111C90.0656 32.0112 86.6523 28.196 86.6523 23.2639Z" fill="#0F1516"/>
<path d="M111.163 24.2871L109.519 25.9937V31.4842H104.711V8.4043H109.519V15.6015C109.519 18.0211 109.425 19.8509 109.363 20.9062L114.792 14.9814H120.438L114.544 21.092L121.121 31.4843H115.475L111.163 24.2871Z" fill="#0F1516"/>
<path d="M120.375 23.2639C120.375 18.3005 123.818 14.5156 128.844 14.5156C131.202 14.5156 133.063 15.2912 134.52 16.6252C136.382 18.4237 137.219 21.2159 137.188 24.4736H125.153C125.463 26.9549 126.797 28.4443 129.154 28.4443C130.674 28.4443 131.636 27.8546 132.163 26.8306H136.879C136.041 29.747 133.342 31.9798 129.092 31.9798C123.694 31.9798 120.375 28.196 120.375 23.2639ZM125.183 21.6502H132.225C132.07 19.3548 130.767 17.9593 128.844 17.9593C126.611 17.9592 125.494 19.3861 125.183 21.6502Z" fill="#0F1516"/>
<path d="M137.75 14.9815H140.232V9.70703H145.009V14.9815H148.235V18.0827H145.009V26.2725C145.009 27.5136 145.691 27.8549 146.839 27.8549C147.15 27.8549 147.646 27.8236 147.955 27.7923H148.204V31.4227C147.677 31.5156 146.684 31.6701 145.381 31.6701C142.31 31.6701 140.232 30.6774 140.232 27.3278V18.0827H137.75V14.9815Z" fill="#0F1516"/>
<path d="M149.41 26.3963H154.002C154.282 27.9474 155.459 28.8159 157.351 28.8159C159.088 28.8159 160.082 28.103 160.082 26.9235C160.082 25.435 158.127 25.2492 155.832 24.8139C152.885 24.2565 149.907 23.5112 149.907 19.6648C149.907 16.2838 152.978 14.5156 156.856 14.5156C161.447 14.5156 163.742 16.501 164.176 19.3861H159.648C159.337 18.2066 158.407 17.6179 156.856 17.6179C155.366 17.6179 154.405 18.2379 154.405 19.2932C154.405 20.5333 156.204 20.7201 158.468 21.123C161.415 21.6501 164.766 22.4257 164.766 26.5822C164.766 30.15 161.602 32.0111 157.321 32.0111C152.544 32.011 149.659 29.7157 149.41 26.3963Z" fill="#0F1516"/>
<path d="M171.406 17.3384H171.498C172.492 15.5701 174.166 14.5158 176.463 14.5158C180.092 14.5158 182.201 16.9354 182.201 20.6264V31.4842H177.362V21.5575C177.362 19.758 176.4 18.5482 174.601 18.5482C172.708 18.5482 171.437 20.068 171.437 22.1775V31.4842H166.566V8.4043H171.437V14.7643C171.437 14.9187 171.437 16.2528 171.406 17.3384Z" fill="#0F1516"/>
<path d="M184.652 8.4043H189.584V12.6547H184.652V8.4043ZM184.683 14.9814H189.553V31.4842H184.683V14.9814Z" fill="#0F1516"/>
<path d="M192.16 14.9812H196.844V17.3381H196.937C198.054 15.4457 199.698 14.5156 201.962 14.5156C206.336 14.5156 209.066 18.1763 209.066 23.2326C209.066 28.5989 206.212 32.0111 201.807 32.0111C199.635 32.0111 197.898 31.0498 196.937 29.4371H196.874C196.937 30.0572 197.03 31.2669 197.03 33.0352V36.9746H192.16L192.16 14.9812ZM204.134 23.3871C204.134 20.4404 202.986 18.3934 200.597 18.3934C198.084 18.3934 196.874 20.5959 196.874 23.3871C196.874 26.2106 198.178 28.2273 200.659 28.2273C202.862 28.2273 204.134 26.3348 204.134 23.3871Z" fill="#0F1516"/>
<path d="M210.492 26.3984H215.641V31.486H210.492V26.3984Z" fill="#0F1516"/>
<path d="M214.992 14.9824H220.017L222.033 21.6201C222.715 23.8226 223.337 27.3903 223.337 27.3903H223.429C223.429 27.3903 224.05 23.8226 224.733 21.6201L226.811 14.9824H231.712L225.943 31.4852H220.7L214.992 14.9824Z" fill="#0F1516"/>
<path d="M231.465 23.2639C231.465 18.3005 234.846 14.5156 240.027 14.5156C244.432 14.5156 247.162 17.0281 247.752 20.6262H243.036C242.694 19.1064 241.703 18.145 240.089 18.145C237.639 18.145 236.397 20.1616 236.397 23.2638C236.397 26.2721 237.639 28.3201 240.089 28.3201C241.888 28.3201 242.974 27.2346 243.191 25.3421H247.875C247.72 29.0957 244.742 32.0111 240.152 32.0111C234.878 32.0112 231.465 28.196 231.465 23.2639Z" fill="#0F1516"/>
</svg>
